# xmcd
#
# Track frame offsets:
#	183
#	13088
#	25865
#	39770
#	53125
#	67300
#	82008
#	94965
#	109758
#	124520
#	137658
#	151210
#	164285
#	180498
#	194448
#	209513
#	222390
#	235995
#	248705
#	261583
#	274463
#	287253
#
# Disc length: 3996 seconds
#
# Revision: 2
# Processed by: cddbd v1.5.2PL0 Copyright (c) Steve Scherf et al.
# Submitted via: EZCDAudioConverter 5.5.0.1
#
DISCID=450f9a16
DTITLE=Robert Nighthawk - Forest City Joe - Black Angel Blues
DYEAR=1991
DGENRE=Blues
TTITLE0=My Sweet Lovin' Woman
TTITLE1=Down the Line
TTITLE2=Sweet Black Angel
TTITLE3=Handsome Lover
TTITLE4=She Knows How to Love a Man
TTITLE5=Annie Lee Blues
TTITLE6=Sugar Papa
TTITLE7=Return Mail Blues
TTITLE8=Good News
TTITLE9=Six Three O
TTITLE10=Prison Bound
TTITLE11=Jackson Town Gal
TTITLE12=Sorry My Angel
TTITLE13=Someday
TTITLE14=Memory of Sonny Boy
TTITLE15=Special Delivery Man
TTITLE16=Shady Lane Woman
TTITLE17=A Woman on Every Street
TTITLE18=Sawdust Bottom
TTITLE19=Ash Street Boggie
TTITLE20=Mean Mistreatin' Woman
TTITLE21=Lonesome Day Blues
EXTD=
EXTT0=
EXTT1=
EXTT2=
EXTT3=
EXTT4=
EXTT5=
EXTT6=
EXTT7=
EXTT8=
EXTT9=
EXTT10=
EXTT11=
EXTT12=
EXTT13=
EXTT14=
EXTT15=
EXTT16=
EXTT17=
EXTT18=
EXTT19=
EXTT20=
EXTT21=
PLAYORDER=
